<mxfile host="app.diagrams.net" agent="Mozilla/5.0 (Windows NT 10.0; Win64; x64) AppleWebKit/537.36 (KHTML, like Gecko) Chrome/130.0.0.0 Safari/537.36 Edg/130.0.0.0" version="24.8.3">
  <diagram id="C5RBs43oDa-KdzZeNtuy" name="Page-1">
    <mxGraphModel dx="1042" dy="565" grid="1" gridSize="10" guides="1" tooltips="1" connect="1" arrows="1" fold="1" page="1" pageScale="1" pageWidth="827" pageHeight="1169" math="0" shadow="0">
      <root>
        <mxCell id="WIyWlLk6GJQsqaUBKTNV-0" />
        <mxCell id="WIyWlLk6GJQsqaUBKTNV-1" parent="WIyWlLk6GJQsqaUBKTNV-0" />
        <mxCell id="2KBeiwwTordgPN46Zj7X-0" value="User" style="shape=umlActor;verticalLabelPosition=bottom;verticalAlign=top;html=1;" vertex="1" parent="WIyWlLk6GJQsqaUBKTNV-1">
          <mxGeometry x="130" y="230" width="30" height="60" as="geometry" />
        </mxCell>
        <mxCell id="2KBeiwwTordgPN46Zj7X-1" value="Enter Search Query" style="ellipse;whiteSpace=wrap;html=1;" vertex="1" parent="WIyWlLk6GJQsqaUBKTNV-1">
          <mxGeometry x="280" y="40" width="140" height="70" as="geometry" />
        </mxCell>
        <mxCell id="2KBeiwwTordgPN46Zj7X-2" value="View All Search Results" style="ellipse;whiteSpace=wrap;html=1;" vertex="1" parent="WIyWlLk6GJQsqaUBKTNV-1">
          <mxGeometry x="274" y="140" width="140" height="70" as="geometry" />
        </mxCell>
        <mxCell id="2KBeiwwTordgPN46Zj7X-3" value="Filter Results" style="ellipse;whiteSpace=wrap;html=1;" vertex="1" parent="WIyWlLk6GJQsqaUBKTNV-1">
          <mxGeometry x="274" y="250" width="140" height="70" as="geometry" />
        </mxCell>
        <mxCell id="2KBeiwwTordgPN46Zj7X-4" value="Interact With Results" style="ellipse;whiteSpace=wrap;html=1;" vertex="1" parent="WIyWlLk6GJQsqaUBKTNV-1">
          <mxGeometry x="274" y="360" width="140" height="70" as="geometry" />
        </mxCell>
        <mxCell id="2KBeiwwTordgPN46Zj7X-5" value="Navigate to Next Page" style="ellipse;whiteSpace=wrap;html=1;" vertex="1" parent="WIyWlLk6GJQsqaUBKTNV-1">
          <mxGeometry x="274" y="470" width="140" height="70" as="geometry" />
        </mxCell>
        <mxCell id="2KBeiwwTordgPN46Zj7X-6" value="View Image Results" style="ellipse;whiteSpace=wrap;html=1;" vertex="1" parent="WIyWlLk6GJQsqaUBKTNV-1">
          <mxGeometry x="480" y="190" width="140" height="70" as="geometry" />
        </mxCell>
        <mxCell id="2KBeiwwTordgPN46Zj7X-7" value="View Video Results" style="ellipse;whiteSpace=wrap;html=1;" vertex="1" parent="WIyWlLk6GJQsqaUBKTNV-1">
          <mxGeometry x="480" y="100" width="140" height="70" as="geometry" />
        </mxCell>
        <mxCell id="2KBeiwwTordgPN46Zj7X-8" value="Visit Website" style="ellipse;whiteSpace=wrap;html=1;" vertex="1" parent="WIyWlLk6GJQsqaUBKTNV-1">
          <mxGeometry x="470" y="320" width="140" height="70" as="geometry" />
        </mxCell>
        <mxCell id="2KBeiwwTordgPN46Zj7X-9" value="View Image" style="ellipse;whiteSpace=wrap;html=1;" vertex="1" parent="WIyWlLk6GJQsqaUBKTNV-1">
          <mxGeometry x="470" y="410" width="140" height="70" as="geometry" />
        </mxCell>
        <mxCell id="2KBeiwwTordgPN46Zj7X-10" value="" style="html=1;verticalAlign=bottom;endArrow=open;dashed=1;endSize=8;curved=0;rounded=0;exitX=0;exitY=0.5;exitDx=0;exitDy=0;entryX=1;entryY=0.5;entryDx=0;entryDy=0;" edge="1" parent="WIyWlLk6GJQsqaUBKTNV-1" source="2KBeiwwTordgPN46Zj7X-7" target="2KBeiwwTordgPN46Zj7X-2">
          <mxGeometry relative="1" as="geometry">
            <mxPoint x="520" y="320" as="sourcePoint" />
            <mxPoint x="440" y="320" as="targetPoint" />
          </mxGeometry>
        </mxCell>
        <mxCell id="2KBeiwwTordgPN46Zj7X-11" value="" style="html=1;verticalAlign=bottom;endArrow=open;dashed=1;endSize=8;curved=0;rounded=0;exitX=0;exitY=0.5;exitDx=0;exitDy=0;entryX=1;entryY=0.5;entryDx=0;entryDy=0;" edge="1" parent="WIyWlLk6GJQsqaUBKTNV-1" source="2KBeiwwTordgPN46Zj7X-6" target="2KBeiwwTordgPN46Zj7X-2">
          <mxGeometry relative="1" as="geometry">
            <mxPoint x="490" y="145" as="sourcePoint" />
            <mxPoint x="424" y="190" as="targetPoint" />
          </mxGeometry>
        </mxCell>
        <mxCell id="2KBeiwwTordgPN46Zj7X-12" value="" style="html=1;verticalAlign=bottom;endArrow=open;dashed=1;endSize=8;curved=0;rounded=0;exitX=0;exitY=0.5;exitDx=0;exitDy=0;entryX=1;entryY=0.5;entryDx=0;entryDy=0;" edge="1" parent="WIyWlLk6GJQsqaUBKTNV-1" source="2KBeiwwTordgPN46Zj7X-8" target="2KBeiwwTordgPN46Zj7X-4">
          <mxGeometry relative="1" as="geometry">
            <mxPoint x="500" y="155" as="sourcePoint" />
            <mxPoint x="434" y="195" as="targetPoint" />
          </mxGeometry>
        </mxCell>
        <mxCell id="2KBeiwwTordgPN46Zj7X-13" value="" style="html=1;verticalAlign=bottom;endArrow=open;dashed=1;endSize=8;curved=0;rounded=0;exitX=0;exitY=0.5;exitDx=0;exitDy=0;entryX=1;entryY=0.5;entryDx=0;entryDy=0;" edge="1" parent="WIyWlLk6GJQsqaUBKTNV-1" source="2KBeiwwTordgPN46Zj7X-9" target="2KBeiwwTordgPN46Zj7X-4">
          <mxGeometry relative="1" as="geometry">
            <mxPoint x="510" y="165" as="sourcePoint" />
            <mxPoint x="420" y="400" as="targetPoint" />
          </mxGeometry>
        </mxCell>
        <mxCell id="2KBeiwwTordgPN46Zj7X-16" value="" style="html=1;verticalAlign=bottom;endArrow=block;curved=0;rounded=0;exitX=1;exitY=0.3333333333333333;exitDx=0;exitDy=0;exitPerimeter=0;entryX=0;entryY=0.5;entryDx=0;entryDy=0;" edge="1" parent="WIyWlLk6GJQsqaUBKTNV-1" source="2KBeiwwTordgPN46Zj7X-0" target="2KBeiwwTordgPN46Zj7X-1">
          <mxGeometry width="80" relative="1" as="geometry">
            <mxPoint x="440" y="320" as="sourcePoint" />
            <mxPoint x="520" y="320" as="targetPoint" />
          </mxGeometry>
        </mxCell>
        <mxCell id="2KBeiwwTordgPN46Zj7X-17" value="" style="html=1;verticalAlign=bottom;endArrow=block;curved=0;rounded=0;entryX=0;entryY=0.5;entryDx=0;entryDy=0;" edge="1" parent="WIyWlLk6GJQsqaUBKTNV-1" target="2KBeiwwTordgPN46Zj7X-2">
          <mxGeometry width="80" relative="1" as="geometry">
            <mxPoint x="160" y="250" as="sourcePoint" />
            <mxPoint x="290" y="85" as="targetPoint" />
          </mxGeometry>
        </mxCell>
        <mxCell id="2KBeiwwTordgPN46Zj7X-18" value="" style="html=1;verticalAlign=bottom;endArrow=block;curved=0;rounded=0;entryX=0;entryY=0.5;entryDx=0;entryDy=0;" edge="1" parent="WIyWlLk6GJQsqaUBKTNV-1" target="2KBeiwwTordgPN46Zj7X-3">
          <mxGeometry width="80" relative="1" as="geometry">
            <mxPoint x="160" y="250" as="sourcePoint" />
            <mxPoint x="300" y="95" as="targetPoint" />
          </mxGeometry>
        </mxCell>
        <mxCell id="2KBeiwwTordgPN46Zj7X-19" value="" style="html=1;verticalAlign=bottom;endArrow=block;curved=0;rounded=0;entryX=0;entryY=0.5;entryDx=0;entryDy=0;exitX=1;exitY=0.3333333333333333;exitDx=0;exitDy=0;exitPerimeter=0;" edge="1" parent="WIyWlLk6GJQsqaUBKTNV-1" source="2KBeiwwTordgPN46Zj7X-0" target="2KBeiwwTordgPN46Zj7X-4">
          <mxGeometry width="80" relative="1" as="geometry">
            <mxPoint x="170" y="260" as="sourcePoint" />
            <mxPoint x="284" y="295" as="targetPoint" />
          </mxGeometry>
        </mxCell>
        <mxCell id="2KBeiwwTordgPN46Zj7X-20" value="" style="html=1;verticalAlign=bottom;endArrow=block;curved=0;rounded=0;entryX=0;entryY=0.5;entryDx=0;entryDy=0;" edge="1" parent="WIyWlLk6GJQsqaUBKTNV-1" target="2KBeiwwTordgPN46Zj7X-5">
          <mxGeometry width="80" relative="1" as="geometry">
            <mxPoint x="160" y="250" as="sourcePoint" />
            <mxPoint x="284" y="405" as="targetPoint" />
          </mxGeometry>
        </mxCell>
        <mxCell id="2KBeiwwTordgPN46Zj7X-22" value="" style="rounded=0;whiteSpace=wrap;html=1;fillColor=none;dashed=1;" vertex="1" parent="WIyWlLk6GJQsqaUBKTNV-1">
          <mxGeometry x="210" y="20" width="460" height="550" as="geometry" />
        </mxCell>
      </root>
    </mxGraphModel>
  </diagram>
</mxfile>
